ply
format ascii 1.0
comment VCGLIB generated
element vertex 32
property float x
property float y
property float z
property float nx
property float ny
property float nz
element face 60
property list uchar int vertex_indices
end_header
4.236068 0 1.618034 0.9341724 6.632074e-09 0.3568221 
2.618034 2.618034 2.618034 0.5773503 0.5773503 0.5773503 
0 1.618034 4.236068 0 0.3568221 0.9341724 
0 -1.618034 4.236068 0 -0.3568221 0.9341724 
2.618034 -2.618034 2.618034 0.5773503 -0.5773503 0.5773503 
1.894427 4.768372e-08 3.065248 0.5257311 4.523456e-15 0.8506508 
-2.618034 2.618034 2.618034 -0.5773503 0.5773503 0.5773503 
-4.236068 0 1.618034 -0.9341724 6.632074e-09 0.3568221 
-2.618034 -2.618034 2.618034 -0.5773503 -0.5773503 0.5773503 
-1.894427 0 3.065248 -0.5257311 0 0.8506508 
1.618034 4.236068 0 0.3568222 0.9341724 6.632074e-09 
-1.618034 4.236068 0 -0.3568222 0.9341724 6.632074e-09 
0 3.065248 1.894427 0 0.8506508 0.5257311 
-1.618034 -4.236068 0 -0.3568222 -0.9341724 6.632074e-09 
1.618034 -4.236068 0 0.3568222 -0.9341724 6.632074e-09 
-4.768372e-08 -3.065248 1.894427 0 -0.8506508 0.5257311 
4.236068 0 -1.618034 0.9341724 6.632074e-09 -0.3568221 
2.618034 2.618034 -2.618034 0.5773503 0.5773503 -0.5773503 
3.065248 1.894427 4.768372e-08 0.8506508 0.5257311 2.261728e-15 
-2.618034 2.618034 -2.618034 -0.5773503 0.5773503 -0.5773503 
-4.236068 0 -1.618034 -0.9341724 6.632074e-09 -0.3568221 
-3.065248 1.894427 0 -0.8506508 0.5257311 0 
-2.618034 -2.618034 -2.618034 -0.5773503 -0.5773503 -0.5773503 
-3.065248 -1.894427 4.768372e-08 -0.8506508 -0.5257311 2.261728e-15 
2.618034 -2.618034 -2.618034 0.5773503 -0.5773503 -0.5773503 
3.065248 -1.894427 2.384186e-08 0.8506508 -0.5257311 2.261728e-15 
0 1.618034 -4.236068 0 0.3568221 -0.9341724 
0 3.065248 -1.894427 2.261728e-15 0.8506508 -0.5257311 
0 -1.618034 -4.236068 0 -0.3568221 -0.9341724 
0 -3.065248 -1.894427 0 -0.8506508 -0.5257311 
1.894427 0 -3.065248 0.5257311 0 -0.8506508 
-1.894427 0 -3.065248 -0.5257311 0 -0.8506508 
3 5 0 1 
3 5 1 2 
3 5 2 3 
3 5 3 4 
3 5 4 0 
3 9 6 7 
3 9 7 8 
3 9 8 3 
3 9 3 2 
3 9 2 6 
3 12 6 2 
3 12 2 1 
3 12 1 10 
3 12 10 11 
3 12 11 6 
3 15 8 13 
3 15 13 14 
3 15 14 4 
3 15 4 3 
3 15 3 8 
3 18 1 0 
3 18 0 16 
3 18 16 17 
3 18 17 10 
3 18 10 1 
3 21 6 11 
3 21 11 19 
3 21 19 20 
3 21 20 7 
3 21 7 6 
3 23 8 7 
3 23 7 20 
3 23 20 22 
3 23 22 13 
3 23 13 8 
3 25 0 4 
3 25 4 14 
3 25 14 24 
3 25 24 16 
3 25 16 0 
3 27 11 10 
3 27 10 17 
3 27 17 26 
3 27 26 19 
3 27 19 11 
3 29 22 28 
3 29 28 24 
3 29 24 14 
3 29 14 13 
3 29 13 22 
3 30 17 16 
3 30 16 24 
3 30 24 28 
3 30 28 26 
3 30 26 17 
3 31 22 20 
3 31 20 19 
3 31 19 26 
3 31 26 28 
3 31 28 22 
